<svg xmlns="http://www.w3.org/2000/svg" viewBox="0 0 48 60" fill="none" x="0px" y="0px"><path fill-rule="evenodd" clip-rule="evenodd" d="M31 21C31 24.866 27.866 28 24 28C20.134 28 17 24.866 17 21C17 17.134 20.134 14 24 14C27.866 14 31 17.134 31 21ZM27.6757 19.7372L23.3121 23.7372C22.9298 24.0876 22.343 24.0876 21.9606 23.7372L20.3243 22.2372C19.9172 21.864 19.8897 21.2314 20.2629 20.8243C20.636 20.4172 21.2686 20.3897 21.6757 20.7628L22.6364 21.6434L26.3243 18.2628C26.7314 17.8897 27.364 17.9172 27.7372 18.3243C28.1104 18.7314 28.0828 19.364 27.6757 19.7372Z" fill="black"/><path fill-rule="evenodd" clip-rule="evenodd" d="M24 8C16.8203 8 11 13.8203 11 21C11 25.6024 13.3917 29.6462 17 31.9564V39C17 39.3466 17.1795 39.6684 17.4743 39.8507C17.7691 40.0329 18.1372 40.0494 18.4472 39.8944L24 37.118L29.5528 39.8944C29.8628 40.0494 30.2309 40.0329 30.5257 39.8507C30.8205 39.6684 31 39.3466 31 39V31.9564C34.6083 29.6462 37 25.6024 37 21C37 13.8203 31.1797 8 24 8ZM24 30C28.9706 30 33 25.9706 33 21C33 16.0294 28.9706 12 24 12C19.0294 12 15 16.0294 15 21C15 25.9706 19.0294 30 24 30Z" fill="black"/><text x="0" y="63" fill="#000000" font-size="5px" font-weight="bold" font-family="'Helvetica Neue', Helvetica, Arial-Unicode, Arial, Sans-serif">Created by HideMaru</text><text x="0" y="68" fill="#000000" font-size="5px" font-weight="bold" font-family="'Helvetica Neue', Helvetica, Arial-Unicode, Arial, Sans-serif">from the Noun Project</text></svg>