<svg xmlns="http://www.w3.org/2000/svg" xmlns:xlink="http://www.w3.org/1999/xlink" version="1.1" x="0px" y="0px" viewBox="0 0 100 125" enable-background="new 0 0 100 100" xml:space="preserve"><g><g><path d="M93.5,52.668c0-3.611-4.367-6.02-14.16-7.808l-0.898,4.918c6.103,1.115,8.62,2.278,9.6,2.898    c-1.373,0.861-5.218,2.342-13.552,3.51c-0.784-0.714-1.854-1.106-2.989-0.964c-2.061,0.258-3.521,2.139-3.263,4.198    s2.139,3.521,4.198,3.263c1.07-0.135,1.971-0.711,2.561-1.519C93.485,58.618,93.5,54.331,93.5,52.668z"/><path d="M41.34,57.538c-18.103-0.708-27.177-3.332-29.559-4.854c0.975-0.621,3.506-1.796,9.688-2.919l-0.895-4.92    c-9.849,1.79-14.241,4.202-14.241,7.822c0,3.308,3.608,5.565,11.699,7.317c6.022,1.306,14.221,2.2,23.195,2.552l-0.056,2.465    l8.744-4.791l-8.521-5.178L41.34,57.538z"/></g><g><path d="M76.465,63.986c-1.017,0.909-2.294,1.502-3.657,1.674c-0.28,0.035-0.563,0.053-0.845,0.053    c-0.46,0-0.909-0.051-1.346-0.14c-2.977,3.935-7.039,7.001-11.758,8.723l3.125-2.273l-1.123-2.771l3.597-4.719l1.121-2.996    l0.066-0.209c-0.13-0.345-0.233-0.702-0.306-1.072l-1.107,0.532l-1.124,0.226l-2.771-1.724l-0.826-1.873l-1.048-1.049    l-1.348-2.996l1.123,0.898l2.099,2.322l0.749,1.048l1.497,0.75l0.449,1.948l1.799-1.199l0.387-0.48    c0.058-1.392,0.537-2.73,1.41-3.853c0.373-0.48,0.806-0.896,1.279-1.253l-0.68-0.555l-0.45-0.826l-0.524,0.975l-1.048,1.198    l-1.499-1.649l-0.448-1.271l1.048,0.225l1.049,0.523l1.499-0.523l0.899,0.3l2.395-1.648l1.351,0.749l0.823-0.449l1.125,1.771    c0.447,0.103,0.881,0.253,1.299,0.444L75,52.573l0.006-0.373l-0.056-0.01l0.062-0.337l0.006-0.354l0.074-3.222l0.551-1.526    c0.045,0.356,0.073,0.718,0.104,1.077l0.641-3.507l0.539-2.951l1.906,0.349C75.237,29.179,63.693,20,50,20    c-13.683,0-25.219,9.164-28.824,21.688l1.812-0.33l0.537,2.951l0.694,3.816c0.342-4.763,1.972-9.168,4.548-12.871l0.333,0.252    l-0.201,0.808l0.741,0.203l-0.136-1.078l0.606-0.067v-1.415h0.607c0,0,0.107,0.274,0.219,0.562c0.123,0.317,0.254,0.65,0.254,0.65    l0.674,0.743c0,0-0.809,0.2-1.077,0.2c-0.271,0-0.137,1.079-0.137,1.079l0.944,0.336l0.609-1.125l1.413-1.57l0.673-2.09    l1.28-1.214l-0.741-0.536l0.811-0.542l0.067-0.741l-2.359,0.675l-0.075-0.09c1.284-1.091,2.677-2.059,4.159-2.886l1.106,0.481    l-0.742,1.416h-1.483l-0.27,1.279h1.215l1.752-1.078l1.213-1.212l0.202-1.146l-1.752-0.135l1.212-0.81l1.146,0.203l-0.2,1.212    l1.55-0.945l0.271,0.742l0.337,1.08l-0.877,1.077l-0.942,0.876l-1.418-0.201l0.676,1.415l-1.28-0.202l-2.158,2.225l0.54,0.741    l1.753-0.136l1.482-0.473l1.889-0.2l0.875-0.202c0,0,0-0.54-0.067-0.875c-0.067-0.338,0.674,0.065,0.674,0.065l0.811-0.471    l0.605-1.888l2.225-1.013l-0.337-0.539l0.54-0.674l-1.753-0.271l0.473-0.674l-2.226-0.742h-1.146l0.403-1.011l0.473-0.473    l-0.038-0.038c1.875-0.432,3.827-0.668,5.836-0.668c3.13,0,6.128,0.557,8.905,1.575l-0.069,0.157l-1.122-0.073v0.674l0.45,0.299    v0.6l0.375,0.523l-1.349-0.823l-0.897,0.45l0.448,1.049l0.226,1.198l0.6,0.674l1.42,0.226l-0.297,0.598l-0.302,0.901l1.274,0.823    l-0.075,0.374l-2.396-2.022l-0.147,0.75l1.047,1.048l0.6,0.225l-1.35,0.299l-0.149,0.675l-0.974-0.975l-0.6-1.271l-0.224-1.275    l-0.601,0.749l0.449,1.798l0.749,0.526l-0.298,1.721l-0.451-0.225l0.075,0.899l-0.675-0.075l-0.673-0.976h-0.823l-1.198-0.149    l-1.2,0.076l-1.123,0.899l-0.748,1.272l-1.574,1.199l-0.15,0.673v0.826l0.376,0.823l0.749-0.6l0.224,0.449l0.376,0.674    l0.074,0.151l0.374,0.449L50,41.537l-0.075-1.648l0.823-1.05c0,0,0.042-0.178,0.088-0.382c0.064-0.273,0.137-0.591,0.137-0.591    l0.3-0.826l0.525,0.075l-0.149,0.675l-0.302,1.497l1.425-0.149l0.525,0.149l-1.125,0.302l0.15,0.748l-1.275,0.823l0.076,0.825    L50,42.285l-0.224,0.599l-0.899-0.3h-0.6v-1.273l-0.676,0.227v0.673l-1.872,1.499l-1.05,0.375l-0.448,0.523l-1.498-0.375    l-0.076,0.675l0.975,0.375l-0.075,1.348l-2.698-0.075l-0.373,0.599l-0.375,1.049l-0.449,0.901l0.674,0.749l0.75,0.896L43.483,50    l0.149-0.898l0.526-0.45l0.898-0.3l-0.075-0.599l0.824-0.225l1.198-0.226l0.749,0.898l1.35,0.976l0.598,0.973v0.45l0.748-0.45    l-0.373-0.673l0.15-0.751l-0.675-0.298l-0.599-0.823l0.374-1.201L50,47.378l0.973,0.75l0.374,1.349l0.976,0.747l0.226,0.825    l0.45-0.974l-0.15-0.45l0.224-0.374l1.421-1.199l0.301-1.498l0.601-0.45l0.747,0.075l1.126-1.124l0.073,0.9l1.646,0.523v0.824    H57.64l-2.022,1.049l-1.647,0.899l0.448,0.973l1.499,0.3l0.824,0.375L57.64,50.3l0.074,2.547l-2.546,0.524l-2.696-0.75    l-1.049,0.824l0.449,0.449l-0.825-0.149l-2.619-0.974l-0.75,0.075l-0.6-0.975v-1.199h-1.349l-0.749-0.149l-2.396,0.525    l-1.873-0.15l-0.182,0.099l2.423,1.473l8.521,5.178l4.44,2.698l-4.557,2.496l-6.058,3.319l0.954,0.393l0.149,2.172l1.35,1.724    l1.272,2.246l-1.123,1.35l1.148,1.784c-8.444-0.305-15.851-4.662-20.345-11.181c-1.83-0.195-3.581-0.414-5.242-0.657    C28.492,73.51,38.486,80,50,80c11.521,0,21.52-6.498,26.546-16.026C76.519,63.978,76.492,63.982,76.465,63.986z"/></g></g><text x="0" y="115" fill="#000000" font-size="5px" font-weight="bold" font-family="'Helvetica Neue', Helvetica, Arial-Unicode, Arial, Sans-serif">Created by Berkay Sargın</text><text x="0" y="120" fill="#000000" font-size="5px" font-weight="bold" font-family="'Helvetica Neue', Helvetica, Arial-Unicode, Arial, Sans-serif">from the Noun Project</text></svg>