<svg xmlns="http://www.w3.org/2000/svg" data-name="Layer 1" viewBox="0 0 100 125" x="0px" y="0px"><defs><style>.cls-1{fill-rule:evenodd;}</style></defs><title>a</title><path class="cls-1" d="M29.123,56.531A6.319,6.319,0,1,0,30.974,61a6.3,6.3,0,0,0-1.851-4.469ZM9.246,92.605h4.68V87.141a1.2,1.2,0,1,1,2.4,0v5.464H32.988V87.141a1.2,1.2,0,1,1,2.4,0v5.464h4.679V82.419a7.839,7.839,0,0,0-7.812-7.813H17.058a7.839,7.839,0,0,0-7.812,7.813V92.605Zm74.29-20.064h-5.65V85.255h5.65V72.541Zm-8.046-.154c0-.531-.645-1-1.4-1.551-2.022-1.475-4.547-3.316-3.394-8.989v0c.214-1.3-.014-2.077-.454-2.414a1.232,1.232,0,0,0-.77-.229,2.548,2.548,0,0,0-1.163.333,4.506,4.506,0,0,0-2.154,4.105v6.766a1.2,1.2,0,0,1-1.2,1.2H57.1a1.606,1.606,0,0,0-.287.021,2.011,2.011,0,0,0-1.21.815,2.089,2.089,0,0,0-.464,1.133c0,.036,0,.033,0,.041l1.8,9.985a2.767,2.767,0,0,0,.811,1.558,1.98,1.98,0,0,0,1.366.515h14.09a2.6,2.6,0,0,0,1.686-.6,1.582,1.582,0,0,0,.6-1.19v-11.5ZM88.3,7.4H36.762A2.47,2.47,0,0,0,34.3,9.854v37.4a2.469,2.469,0,0,0,2.459,2.459h8.672a1.2,1.2,0,0,1,1.2,1.2V59.18l8.761-5.058c.02-.014.04-.026.061-.038l7.223-4.171a1.2,1.2,0,0,1,.671-.2H88.3a2.469,2.469,0,0,0,2.459-2.459V9.854A2.47,2.47,0,0,0,88.3,7.4ZM75.4,23.142V36.629L63.726,43.366V29.879L75.4,23.142ZM47.269,21.074a1.2,1.2,0,0,1,.108-.5l.007-.014,0-.006v0a1.208,1.208,0,0,1,.2-.3h0l.02-.019v0l.013-.012,0,0,.008-.008.009-.008a1.174,1.174,0,0,1,.233-.171L54.9,15.979v0l0,0,7.016-4.05a1.193,1.193,0,0,1,1.2-.01L77.09,19.984a1.2,1.2,0,0,1,.7,1.09v16.24h0a1.192,1.192,0,0,1-.6,1.034L63.222,46.411a1.2,1.2,0,0,1-1.387,0l-6.871-3.967c-.023-.011-.045-.023-.067-.036l-6.956-4.016a1.2,1.2,0,0,1-.675-1.078V21.074ZM54.8,26.112l1.162.671-.014,3.771L54.8,29.9V26.112Zm12.989-8.744,1.165.672L57.277,24.782l-1.165-.672,11.677-6.742ZM53.722,22.73l-2.869-1.656L56.1,18.047v0l6.434-3.715L65.4,15.988,53.722,22.73Zm4.621,5.427,2.988,1.725V43.366l-5.175-2.988c-.02-.013-.04-.026-.061-.038l-6.434-3.714V23.145l2.744,1.584v5.865h0a1.194,1.194,0,0,0,.6,1.039l3.531,2.006h0A1.192,1.192,0,0,0,58.327,32.6l.016-4.444Zm13-8.737,2.864,1.654L62.531,27.815l-2.864-1.653Z"/><text x="0" y="115" fill="#000000" font-size="5px" font-weight="bold" font-family="'Helvetica Neue', Helvetica, Arial-Unicode, Arial, Sans-serif">Created by Good Wife</text><text x="0" y="120" fill="#000000" font-size="5px" font-weight="bold" font-family="'Helvetica Neue', Helvetica, Arial-Unicode, Arial, Sans-serif">from the Noun Project</text></svg>